<?xml version="1.0" encoding="utf-8"?>
<!-- Generator: Adobe Illustrator 17.1.0, SVG Export Plug-In . SVG Version: 6.00 Build 0)  -->
<!DOCTYPE svg PUBLIC "-//W3C//DTD SVG 1.1//EN" "http://www.w3.org/Graphics/SVG/1.1/DTD/svg11.dtd">
<svg version="1.1" id="Layer_1" xmlns="http://www.w3.org/2000/svg" xmlns:xlink="http://www.w3.org/1999/xlink" x="0px" y="0px"
	 viewBox="0 0 960 560" enable-background="new 0 0 960 560" xml:space="preserve">
<g>
	<g>
		<g>
			<path d="M139.715,224.626c0.924,6.275,1.48,12.851,1.68,19.726c0.199,6.877-0.103,13.684-0.896,20.424
				c-0.792,6.739-2.194,13.204-4.195,19.399c-2.001,6.195-4.741,11.778-8.216,16.76c-3.475,4.981-7.776,9.166-12.906,12.571
				c-5.13,3.405-11.241,5.669-18.355,6.823c-1.32,0.214-2.911,0.392-4.775,0.533c-1.865,0.141-3.835,0.193-5.908,0.155
				c-2.075-0.038-4.159-0.196-6.249-0.472c-2.091-0.276-3.997-0.734-5.714-1.371c-1.717-0.638-3.177-1.469-4.378-2.495
				c-1.201-1.027-1.946-2.312-2.235-3.855c-0.149-0.798-0.16-1.883-0.028-3.253c0.131-1.37,0.473-2.737,1.026-4.099
				c0.552-1.363,1.34-2.601,2.358-3.713c1.018-1.113,2.369-1.817,4.049-2.108c1.912-0.331,3.818-0.358,5.72-0.077
				c1.9,0.281,3.871,0.622,5.909,1.023c2.038,0.401,4.149,0.723,6.335,0.969c2.185,0.245,4.492,0.171,6.921-0.221
				c2.719-0.439,5.175-2.153,7.383-5.147c2.207-2.993,4.149-6.742,5.832-11.248c1.682-4.508,3.093-9.481,4.233-14.923
				c1.139-5.442,2.522-16.234,2.522-16.234c-0.163-0.071-5.092,5.519-7.894,8.14c-2.804,2.62-6.083,5.045-9.835,7.278
				c-3.753,2.233-8.126,4.245-13.112,6.045c-4.987,1.8-10.868,3.285-17.646,4.476c-7.889,1.387-15.265,1.226-22.166-0.487
				c-6.903-1.714-13.099-4.57-18.6-8.582c-5.502-4.013-10.149-8.998-13.93-14.972c-3.78-5.973-6.425-12.512-7.9-19.637
				c-1.934-9.341-2.517-18.534-1.704-27.596c0.813-9.06,2.76-17.727,5.864-25.997c3.105-8.269,7.215-16.027,12.341-23.258
				c5.126-7.231,10.965-13.681,17.506-19.331c6.54-5.65,13.657-10.393,21.331-14.208c7.672-3.815,15.592-6.438,23.723-7.852
				c5.003-0.87,9.754-1.017,14.241-0.443c4.486,0.575,8.518,1.985,12.089,4.227c3.57,2.242,6.554,5.335,8.952,9.272
				c2.399,3.936,4.021,8.83,4.882,14.671c0.335,2.272,0.358,4.579,0.073,6.917c-0.285,2.34-0.902,4.936-2.041,7.245
				c-1.368,2.776-3.218,4.94-4.897,6.282c-1.679,1.342-3.343,2.145-4.996,2.409c-1.286,0.205-2.526,0.1-3.72-0.315
				c-1.194-0.415-2.267-1.044-3.215-1.883c-0.948-0.84-1.749-1.828-2.401-2.965c-0.652-1.137-1.08-2.351-1.284-3.644
				c-0.162-1.023-0.134-2.05,0.082-3.081c0.216-1.031,0.447-2.063,0.696-3.099c0.248-1.036,0.475-2.109,0.681-3.221
				c0.206-1.112,0.22-2.233,0.043-3.365c-0.843-5.389-2.838-9.208-5.995-11.443c-3.158-2.235-6.795-3.001-10.898-2.293
				c-5.034,0.868-10.185,2.699-15.431,5.488c-5.247,2.791-10.233,6.379-14.943,10.756c-4.712,4.379-8.998,9.492-12.848,15.327
				c-3.851,5.837-6.973,12.272-9.366,19.297c-2.395,7.026-3.888,14.552-4.496,22.576c-0.607,8.025-0.043,16.408,1.664,25.161
				c1.065,5.465,2.754,10.077,5.055,13.848c2.3,3.77,5.098,6.747,8.394,8.936c3.295,2.19,7.07,3.582,11.328,4.183
				c4.258,0.601,8.889,0.46,13.903-0.421c9.318-1.636,17.705-4.22,25.19-7.794c7.484-3.572,18.189-8.687,20.675-13.193
				c0.523-0.947,0.395-3.303,0.52-4.842c0.125-1.537,0.092-2.925-0.102-4.166c-0.253-1.617-0.692-2.86-1.318-3.728
				c-0.626-0.867-1.38-1.468-2.26-1.799c-0.879-0.33-1.884-0.462-3.007-0.394c-1.125,0.068-2.315,0.203-3.572,0.405
				c-2.275,0.365-4.307,0.418-6.101,0.159c-1.793-0.259-3.361-0.72-4.7-1.38c-1.339-0.66-2.404-1.504-3.191-2.532
				c-0.788-1.027-1.276-2.104-1.464-3.231s-0.085-2.262,0.312-3.404c0.397-1.142,1.129-2.217,2.201-3.224
				c1.071-1.007,2.483-1.917,4.239-2.731c1.754-0.814,3.869-1.423,6.342-1.825c5.85-0.949,10.749-1.17,14.685-0.677
				c3.935,0.492,7.131,1.635,9.585,3.419c2.453,1.784,4.31,4.147,5.572,7.081C138.226,217.316,139.142,220.731,139.715,224.626z"/>
			<path d="M202.415,182.36c2.134,2.96,3.843,6.155,5.128,9.581c1.285,3.425,2.111,6.757,2.482,9.986
				c0.371,3.231,0.353,6.534-0.049,9.907c-0.402,3.374-1.158,6.679-2.265,9.912c-1.107,3.234-2.559,6.314-4.353,9.241
				c-1.795,2.927-3.923,5.534-6.382,7.824c-2.461,2.29-5.215,4.202-8.268,5.742c-3.053,1.54-6.381,2.538-9.988,2.999
				c-5.206,0.666-9.795,0.205-13.78-1.389c-3.986-1.593-7.406-3.902-10.256-6.932c-2.85-3.029-5.136-6.576-6.847-10.642
				c-1.712-4.066-2.885-8.262-3.512-12.595c-0.862-5.956-0.676-11.663,0.576-17.127c1.253-5.462,3.477-10.379,6.683-14.739
				c3.205-4.36,7.379-8.025,12.521-10.979c5.141-2.953,11.119-4.886,17.912-5.774c5.814-0.76,11.364-0.645,16.632,0.341
				c5.267,0.986,10.27,2.58,15,4.777c4.729,2.198,9.185,4.846,13.36,7.941c4.175,3.094,8.089,6.345,11.741,9.742
				c-0.217,4.725-0.324,7.087-0.535,11.81c-1.83-1.811-4.255-3.724-7.276-5.732c-3.023-2.008-6.214-3.936-9.574-5.78
				c-3.359-1.844-6.669-3.562-9.925-5.151c-3.256-1.589-6.059-2.906-8.402-3.955C202.79,181.766,202.665,181.964,202.415,182.36z
				 M180.148,231.431c2.024-0.259,3.869-1.448,5.539-3.568c1.669-2.121,3.044-4.701,4.123-7.743s1.842-6.35,2.287-9.924
				c0.444-3.572,0.476-6.944,0.087-10.111c-0.308-2.51-0.806-4.818-1.494-6.922c-0.688-2.102-1.555-3.893-2.6-5.367
				c-1.045-1.474-2.296-2.59-3.747-3.345c-1.452-0.755-3.123-1.009-5.007-0.763c-2.493,0.327-4.742,1.595-6.738,3.8
				c-1.997,2.207-3.647,4.907-4.945,8.1c-1.299,3.194-2.188,6.65-2.667,10.367c-0.48,3.718-0.491,7.234-0.042,10.547
				c0.309,2.282,0.84,4.397,1.59,6.341c0.75,1.945,1.734,3.599,2.948,4.958c1.215,1.36,2.715,2.379,4.503,3.058
				C175.772,231.538,177.826,231.728,180.148,231.431z"/>
			<path d="M324.414,213.093c-1.263,1.872-2.968,4.079-5.106,6.623c-2.14,2.546-4.564,4.999-7.27,7.365
				c-2.707,2.366-5.638,4.415-8.793,6.151c-3.156,1.736-6.363,2.728-9.626,2.979c-3.918,0.301-7.277-0.615-10.089-2.753
				c-2.812-2.138-7.446-9.658-7.664-9.677c-0.339-0.029-2.92,3.398-4.861,5.181c-1.942,1.785-4.087,3.436-6.433,4.953
				c-2.347,1.52-4.815,2.815-7.406,3.891c-2.591,1.075-5.219,1.741-7.887,1.998c-2.846,0.275-5.672,0.011-8.481-0.79
				c-2.81-0.801-5.36-2.095-7.653-3.882c-2.292-1.787-4.222-4.054-5.786-6.8c-1.564-2.747-2.548-5.928-2.944-9.549
				c-0.45-4.114-0.283-8.406,0.51-12.879c0.793-4.472,2.086-8.904,3.885-13.294c1.798-4.389,4.043-8.59,6.738-12.602
				c2.694-4.01,5.741-7.585,9.137-10.716c3.395-3.131,7.059-5.714,10.985-7.745c3.925-2.03,8.012-3.247,12.248-3.644
				c1.412-0.132,2.538,0.014,3.379,0.438c0.84,0.424,1.55,0.931,2.125,1.519c0.575,0.587,1.135,1.165,1.676,1.729
				c0.541,0.564,1.193,0.951,1.95,1.162c0.758,0.211,1.523,0.324,2.296,0.339c0.772,0.015,1.556-0.012,2.353-0.082
				c0.673-0.059,1.362-0.133,2.064-0.222c0.701-0.089,1.389-0.162,2.064-0.22c0.919-0.079,1.782-0.068,2.593,0.03
				c0.809,0.099,1.543,0.401,2.198,0.903c0.655,0.502,1.19,1.24,1.605,2.21c0.413,0.97,0.687,2.316,0.82,4.034
				c0.206,2.661,0.129,5.64-0.227,8.932c-0.356,3.292-0.764,6.673-1.223,10.141c-0.459,3.468-0.854,6.93-1.186,10.387
				c-0.332,3.456-0.374,6.708-0.13,9.755c0.208,2.604,0.626,4.621,1.252,6.047c0.626,1.427,1.776,2.075,3.452,1.945
				c1.257-0.098,2.55-0.49,3.884-1.177c1.332-0.687,2.668-1.554,4.007-2.603c1.337-1.048,2.669-2.22,3.994-3.518
				c1.323-1.296,2.576-2.629,3.744-3.998c2.734-3.203,5.482-6.811,8.25-10.804C321.094,202.143,322.205,205.791,324.414,213.093z
				 M247.056,212.844c0.136,1.377,0.373,2.702,0.711,3.973c0.338,1.273,0.826,2.393,1.465,3.359
				c0.638,0.967,1.437,1.723,2.394,2.269c0.958,0.546,2.122,0.755,3.497,0.624c2.209-0.21,4.126-1.279,5.756-3.21
				c1.628-1.93,2.99-4.198,4.083-6.802c1.093-2.604,1.928-5.269,2.502-7.993c0.574-2.724,0.905-4.98,0.99-6.771
				c1.341-9.944,2.023-14.919,3.41-24.873c-2.501,0.228-4.891,1.021-7.165,2.376c-2.275,1.356-4.372,3.101-6.291,5.233
				c-1.918,2.134-3.639,4.528-5.16,7.18c-1.522,2.653-2.783,5.406-3.786,8.258s-1.715,5.69-2.135,8.512
				C246.904,207.801,246.816,210.422,247.056,212.844z"/>
			<path d="M335.104,232.98c-3.209,0.188-6.276-0.954-9.214-3.423c-2.938-2.469-5.59-5.857-7.955-10.168
				c-2.366-4.309-4.343-9.352-5.929-15.131c-1.585-5.779-2.614-11.888-3.072-18.334c-0.351-4.944-0.339-10.349,0.045-16.216
				c0.384-5.865,1.128-11.943,2.24-18.23c1.112-6.286,2.527-12.626,4.251-19.018c1.725-6.391,3.761-12.557,6.115-18.494
				c2.354-5.936,4.986-11.517,7.897-16.737c2.91-5.219,6.037-9.809,9.375-13.766c3.336-3.956,6.893-7.124,10.66-9.501
				c3.765-2.376,7.661-3.689,11.669-3.932c2.735-0.166,5.019,0.248,6.847,1.238c1.827,0.99,3.288,2.355,4.378,4.092
				c1.09,1.737,1.887,3.732,2.391,5.98c0.504,2.247,0.803,4.55,0.898,6.905c0.213,5.271-0.249,10.677-1.371,16.212
				c-1.123,5.536-2.706,11.124-4.739,16.762c-2.034,5.639-4.408,11.309-7.117,17.012c-2.709,5.703-5.524,11.372-8.44,17.003
				c-2.916,5.632-5.831,11.181-8.743,16.647c-2.912,5.466-5.643,10.806-8.103,15.986c-0.272,0.573-0.546,1.322-0.825,2.233
				c-0.28,0.914-0.541,1.895-0.781,2.944c-0.241,1.051-0.477,2.171-0.708,3.359c-0.232,1.189-0.404,2.347-0.517,3.473
				c0.028,0.468,0.042,0.702,0.071,1.171c0.088,1.45,0.339,2.848,0.751,4.192c0.413,1.345,0.892,2.548,1.437,3.606
				c0.545,1.058,1.107,1.893,1.684,2.502c0.578,0.61,1.105,0.9,1.586,0.872c1.138-0.066,2.43-0.364,3.874-0.894
				c1.443-0.53,2.97-1.217,4.58-2.061c1.609-0.845,3.259-1.801,4.952-2.872c1.691-1.069,3.325-2.15,4.899-3.24
				c3.674-2.542,7.522-5.45,11.551-8.726c3.289,6.917,4.922,10.381,8.166,17.321c-5.187,3.811-10.321,7.303-15.361,10.28
				c-2.184,1.29-4.494,2.558-6.848,3.824c-2.355,1.267-4.728,2.412-7.117,3.434c-2.392,1.023-4.731,1.864-7.017,2.524
				C339.278,232.472,337.124,232.861,335.104,232.98z M331.119,166.093c0.194,0.042,5.11-9.848,7.9-15.626
				c2.788-5.776,5.422-11.712,7.896-17.806c2.474-6.093,4.598-12.151,6.363-18.175c1.764-6.023,3.101-11.872,3.133-16.723
				c0.01-1.534-0.193-3.003-0.344-4.145c-0.15-1.14-0.478-1.696-0.982-1.665c-1.829,0.112-3.748,1.285-5.749,3.514
				c-2.001,2.23-3.959,5.203-5.867,8.913c-1.909,3.712-3.682,8.004-5.315,12.873c-1.635,4.871-3.037,10.033-4.21,15.487
				c-1.173,5.454-2.016,11.04-2.537,16.754C330.885,155.211,331.119,166.093,331.119,166.093z"/>
			<path d="M426.584,192.067c-0.076-3.721,0.078-8.026,0.467-12.915c0.389-4.888,0.9-9.866,1.537-14.932
				c0.637-5.065,1.374-9.951,2.211-14.657c0.838-4.705,1.66-8.736,2.472-12.085c0.633-2.611,1.917-4.819,3.844-6.615
				c1.927-1.796,4.57-2.734,7.925-2.803c3.354-0.069,5.693,0.822,7.013,2.665c1.32,1.843,1.991,4.323,2.017,7.433
				c0.007,0.848-0.076,1.995-0.25,3.441c-0.173,1.445-0.391,3.033-0.653,4.762c-0.263,1.73-0.539,3.517-0.829,5.357
				c-0.291,1.843-0.567,3.544-0.828,5.103c-0.261,1.56-0.478,2.921-0.65,4.082c-0.173,1.162-0.257,1.942-0.253,2.336
				c0.735-0.011,1.102-0.016,1.836-0.027c0.361-0.627,0.933-1.638,1.719-3.036c0.784-1.396,1.691-3.006,2.723-4.831
				c1.03-1.823,2.14-3.748,3.329-5.772c1.189-2.023,2.303-3.961,3.344-5.814c1.041-1.851,1.992-3.49,2.854-4.916
				c0.861-1.424,1.507-2.483,1.94-3.164c1.957-3.075,4.235-5.196,6.783-6.351c2.545-1.154,5.373-1.74,8.481-1.754
				c3.105-0.014,5.569,1.172,7.382,3.555s2.698,5.678,2.663,9.881c-0.005,0.626-0.154,1.676-0.443,3.152
				c-0.289,1.477-0.658,3.237-1.104,5.28c-0.445,2.043-0.94,4.288-1.478,6.727c-0.539,2.441-1.032,4.938-1.477,7.492
				c-0.445,2.554-0.811,5.079-1.1,7.576c-0.289,2.498-0.44,4.797-0.453,6.896c-0.021,3.52,0.436,6.417,1.36,8.689
				c0.924,2.273,2.381,3.417,4.379,3.429c0.908,0.006,1.952-0.243,3.137-0.746c1.185-0.502,2.464-1.159,3.835-1.972
				c1.371-0.811,2.777-1.751,4.217-2.816c1.438-1.065,2.875-2.157,4.278-3.28c3.256-2.609,6.684-5.605,10.285-8.912
				c0.475,7.662,0.71,11.494,1.175,19.158c-1.84,1.266-2.759,1.899-4.594,3.168c-2.509,1.725-5.054,3.451-7.64,5.179
				c-2.586,1.728-5.27,3.274-8.051,4.637c-2.782,1.364-5.676,2.473-8.682,3.331c-3.009,0.859-6.161,1.281-9.459,1.27
				c-3.302-0.011-6.07-2.268-8.328-6.771c-2.257-4.502-3.402-11.085-3.416-19.754c-0.006-3.399,0.23-7.068,0.713-11.01
				c0.483-3.94,1.091-8.179,1.823-12.718c-0.588,0.004-0.883,0.005-1.471,0.009c-7.981,14.725-15.845,29.514-23.59,44.366
				c-1.178,2.333-2.509,3.931-3.998,4.798c-1.49,0.868-3.223,1.316-5.203,1.346c-2.461,0.038-4.449-0.422-5.966-1.381
				c-1.518-0.959-2.7-2.262-3.544-3.91c-0.844-1.646-1.424-3.525-1.738-5.634C426.811,196.504,426.63,194.323,426.584,192.067z"/>
			<path d="M514.775,119.929c0.017-1.024,0.087-2.347,0.208-3.969c0.121-1.621,0.261-3.414,0.42-5.375
				c0.159-1.961,0.351-4.039,0.578-6.229c0.225-2.19,0.453-4.338,0.678-6.442c0.529-4.946,1.43-10.525,1.8-15.958
				c0.11-1.619,0.534-3.227,1.511-4.561c0.977-1.332,2.237-2.464,3.78-3.394c1.543-0.93,3.275-1.644,5.193-2.14
				c1.919-0.497,3.833-0.735,5.741-0.714c1.588,0.017,3.111,0.22,4.564,0.609c1.452,0.389,2.74,0.964,3.863,1.722
				c1.122,0.758,2,1.742,2.63,2.951c0.632,1.209,0.923,2.614,0.875,4.21c-0.02,0.685-0.104,1.384-0.253,2.094
				c-0.148,0.711-0.359,1.468-0.636,2.259c-0.953,2.718-2.016,5.719-3.148,8.982c-1.133,3.264-2.292,6.513-3.477,9.745
				c-1.185,3.233-2.331,6.311-3.438,9.231c-1.107,2.921-2.099,5.403-2.949,7.44c-1.131,2.709-2.683,4.736-4.671,6.047
				c-1.988,1.312-3.974,1.955-5.961,1.932c-1.988-0.023-3.712-0.738-5.179-2.147C515.439,124.815,514.728,122.718,514.775,119.929z"
				/>
			<path d="M653.761,61.211c9.471,0.512,19.077,2.198,27.891,5.728c7.823,3.133,14.236,7.184,19.164,11.962
				c4.929,4.778,8.45,10.124,10.58,16.014c2.13,5.89,2.881,11.873,2.282,17.94c-0.56,5.664-2.302,11.161-5.204,16.497
				c-2.902,5.336-6.94,10.133-12.1,14.404c-5.159,4.271-11.468,7.81-18.921,10.643c-7.454,2.835-23.482,3.115-25.767,5.299
				c-1.109,1.06-0.929,8.05-1.323,11.538c-0.168,1.489-0.346,2.986-0.518,4.477c-0.172,1.492-0.32,2.858-0.443,4.091
				c-0.122,1.235-0.234,2.314-0.333,3.231c-0.099,0.919-0.156,1.556-0.186,1.896c-0.356,3.965-1.234,8.173-2.429,12.455
				c-1.196,4.283-2.772,8.436-4.721,12.459c-1.949,4.024-4.235,7.807-6.852,11.35c-2.618,3.543-5.578,6.6-8.885,9.176
				c-3.306,2.575-6.936,4.556-10.891,5.945c-3.957,1.39-8.21,1.947-12.773,1.679c-4.86-0.286-9.136-1.745-12.842-4.382
				c-3.707-2.637-6.911-6.083-9.614-10.343c-2.704-4.259-4.946-9.12-6.728-14.583c-1.781-5.463-3.19-11.15-4.223-17.063
				c-1.031-5.912-1.723-11.851-2.067-17.819c-0.344-5.967-0.417-11.581-0.211-16.843c0.353-9.034,1.584-17.726,3.722-26.076
				c2.138-8.349,5.049-16.148,8.753-23.392c3.703-7.242,8.129-13.817,13.29-19.715c5.159-5.896,10.929-10.904,17.305-15.01
				c6.375-4.104,13.271-7.183,20.666-9.214C637.777,61.527,645.61,60.77,653.761,61.211z M591.425,155.686
				c-0.116,2.35-0.258,5.517-0.424,9.5c-0.166,3.984-0.21,8.247-0.131,12.787c0.079,4.541,0.337,9.149,0.769,13.822
				c0.432,4.673,1.198,8.922,2.297,12.741c1.099,3.82,2.559,6.973,4.377,9.457c1.818,2.483,4.189,3.81,7.118,3.979
				c3.049,0.175,5.709-0.689,7.987-2.596c2.278-1.907,4.237-4.439,5.882-7.594c1.644-3.155,3.022-6.762,4.13-10.817
				c1.108-4.053,2.01-8.139,2.703-12.25c0.692-4.111,1.224-8.045,1.591-11.802c0.367-3.755,0.638-6.956,0.81-9.6
				c0.106-1.621,0.159-2.431,0.264-4.051c-4.968-2.201-8.874-4.09-11.706-5.683c-2.833-1.593-4.954-3.084-6.357-4.48
				c-1.402-1.395-2.265-2.833-2.583-4.316c-0.319-1.483-0.424-3.199-0.315-5.15c0.058-1.033,0.147-2.05,0.265-3.05
				c0.118-0.999,0.338-1.882,0.66-2.643c0.322-0.761,0.76-1.373,1.316-1.835c0.554-0.462,1.298-0.67,2.228-0.624
				c0.62,0.031,1.189,0.174,1.702,0.43c0.512,0.255,1.166,0.605,1.945,1.048c1.982,1.127,3.794,2.084,5.425,2.834
				c1.63,0.75,3.022,1.363,4.172,1.828c1.33,0.537,3.512,1.34,3.646,1.244c0.138-0.099,0.16-2.226,0.335-4.437
				c0.175-2.209,0.523-4.728,1.051-7.554c0.527-2.825,1.298-5.768,2.313-8.825c1.015-3.057,2.391-5.837,4.131-8.335
				c1.739-2.498,3.924-4.523,6.555-6.072c2.629-1.548,5.802-2.211,9.511-1.979c1.131,0.071,2.286,0.245,3.465,0.523
				c1.177,0.278,2.234,0.722,3.165,1.333c0.931,0.611,1.692,1.4,2.279,2.364c0.588,0.966,0.825,2.169,0.713,3.608
				c-0.031,0.404-0.069,0.677-0.111,0.818c-0.043,0.142-0.073,0.329-0.091,0.558c-2.982,8.726-4.463,13.089-7.402,21.814
				c-0.541,2.706-0.81,4.059-1.349,6.766c6.126-0.454,11.463-1.461,16.017-3.038c4.553-1.577,8.386-3.546,11.498-5.917
				c3.112-2.37,5.51-5.055,7.188-8.059c1.679-3.004,2.671-6.15,2.966-9.439c0.29-3.231-0.087-6.59-1.138-10.069
				c-1.051-3.48-3.125-6.733-6.23-9.749c-3.106-3.016-7.402-5.618-12.889-7.785c-5.488-2.168-12.518-3.521-21.073-4.024
				c-6.402-0.376-12.28,0.416-17.613,2.358c-5.334,1.943-10.136,4.719-14.395,8.318c-4.262,3.599-8.005,7.861-11.23,12.778
				c-3.227,4.918-5.932,10.19-8.129,15.813c-2.197,5.624-3.89,11.44-5.089,17.447C592.445,144.088,591.709,149.957,591.425,155.686z
				"/>
			<path d="M664.834,209.697c0.789-0.435,2.122-1.147,3.999-2.13c1.878-0.984,4.095-2.147,6.649-3.487
				c2.553-1.339,5.313-2.812,8.282-4.417c2.967-1.604,5.899-3.222,8.796-4.854c0.488-2.231,0.732-3.346,1.222-5.577
				c2.5-10.72,5.156-21.175,9.258-31.418c3.527-8.809,7.765-17.367,12.833-25.378c4.722-7.464,9.779-13.917,15.108-19.339
				c5.327-5.421,10.678-9.87,16.037-13.341c5.356-3.47,10.566-5.939,15.608-7.401c5.041-1.462,9.66-1.96,13.838-1.497
				c3.026,0.335,5.746,1.178,8.153,2.523c2.407,1.347,4.381,3.183,5.918,5.507c1.538,2.325,2.609,5.134,3.217,8.423
				c0.607,3.289,0.629,7.049,0.073,11.271c-0.681,5.168-2.235,10.484-4.64,15.948c-2.406,5.464-5.506,10.899-9.285,16.307
				c-3.78,5.409-8.14,10.733-13.07,15.981c-4.93,5.247-10.259,10.24-15.98,14.986c-5.721,4.746-11.783,9.167-18.182,13.271
				c-6.399,4.103-17.386,7.79-19.586,10.76c-1.051,1.419-0.835,6.029-1.123,7.984c-0.288,1.957-0.497,3.448-0.63,4.467
				c-0.133,1.021-0.22,1.727-0.26,2.113c-0.04,0.388-0.071,0.693-0.093,0.914c-0.051,0.498,0.003,0.966,0.16,1.401
				s0.524,0.81,1.099,1.121c0.574,0.311,1.369,0.59,2.383,0.836c1.013,0.246,2.378,0.46,4.092,0.643
				c2.571,0.275,6.091,0.039,10.57-0.698c9.887-1.599,19.783-3.139,29.688-4.62c0.471-0.054,0.94-0.081,1.406-0.08
				c0.465,0.002,0.899,0.026,1.3,0.076c1.432,0.178,2.631,0.596,3.596,1.253c0.965,0.658,1.735,1.475,2.308,2.45
				c0.575,0.977,0.959,2.07,1.153,3.28c0.194,1.21,0.213,2.427,0.057,3.649c-0.142,1.112-0.451,2.173-0.926,3.183
				c-0.476,1.012-1.114,1.931-1.913,2.76c-0.798,0.828-1.751,1.51-2.858,2.046c-1.106,0.535-2.513,0.704-3.746,0.878
				c-5.333,0.754-11.761,2.734-17.726,3.736c-2.569,0.432-5.282,0.822-8.109,1.196c-2.828,0.374-5.7,0.663-8.617,0.868
				c-2.918,0.205-5.852,0.315-8.803,0.33c-2.953,0.015-5.786-0.12-8.504-0.405c-4.191-0.44-7.561-1.497-10.116-3.177
				c-2.557-1.681-4.503-3.799-5.839-6.355c-1.337-2.557-2.174-5.44-2.509-8.651c-0.335-3.211-0.011-10.125-0.011-10.125
				c-0.572-0.367-9.674,5.413-13.281,7.154c-3.607,1.742-5.888,2.574-6.86,2.491c-0.97-0.083-1.87-0.479-2.703-1.19
				c-0.832-0.709-1.576-1.619-2.234-2.73c-0.657-1.11-1.148-2.331-1.472-3.664c-0.324-1.331-0.434-2.632-0.331-3.902
				c0.085-1.048,0.297-2.072,0.639-3.073C663.208,210.996,663.866,210.231,664.834,209.697z M716.793,185.063
				c0.217,0.131,6.704-5.522,10.314-8.651c3.61-3.128,7.221-6.422,10.839-9.88c3.617-3.458,7.141-7.007,10.572-10.649
				c3.43-3.641,6.579-7.297,9.443-10.97c2.864-3.673,5.34-7.275,7.425-10.81c2.084-3.534,3.552-6.977,4.459-10.216
				c0.303-1.083,0.565-2.145,0.751-3.166c0.185-1.02,0.333-1.974,0.442-2.863c0.388-3.164,0.204-5.52-0.55-7.067
				c-0.755-1.546-1.944-2.41-3.568-2.587c-1.924-0.211-4.291,0.475-7.09,2.057c-2.8,1.582-5.808,3.947-9.014,7.091
				c-3.207,3.146-6.513,7.012-9.912,11.597c-3.399,4.587-6.633,9.753-9.701,15.493c-3.068,5.74-5.864,12.043-8.391,18.897
				C720.287,170.194,716.793,185.063,716.793,185.063z"/>
			<path d="M868.096,242.722c-1.703,1.607-3.921,3.45-6.644,5.53c-2.727,2.081-5.703,3.997-8.932,5.751
				c-3.228,1.754-6.594,3.127-10.098,4.122c-3.505,0.995-6.867,1.213-10.098,0.654c-3.878-0.671-6.904-2.453-9.089-5.354
				c-2.185-2.901-4.859-11.825-4.976-11.865c-0.306-0.105-3.695,2.76-6.031,4.106c-2.337,1.348-4.836,2.506-7.496,3.478
				c-2.663,0.973-5.384,1.685-8.169,2.14c-2.785,0.455-5.501,0.479-8.152,0.075c-2.828-0.432-5.5-1.413-8.019-2.942
				c-2.521-1.53-4.663-3.5-6.431-5.914c-1.768-2.414-3.063-5.229-3.881-8.445c-0.82-3.217-0.965-6.736-0.43-10.556
				c0.608-4.342,1.858-8.713,3.763-13.111c1.904-4.398,4.282-8.628,7.142-12.688c2.858-4.058,6.102-7.812,9.734-11.257
				c3.631-3.444,7.495-6.351,11.585-8.715c4.09-2.364,8.3-4.098,12.626-5.198c4.323-1.099,8.599-1.323,12.81-0.667
				c1.403,0.218,2.459,0.651,3.168,1.299c0.707,0.647,1.267,1.346,1.675,2.094c0.408,0.748,0.805,1.482,1.186,2.197
				c0.382,0.715,0.914,1.278,1.596,1.684c0.683,0.408,1.395,0.715,2.142,0.925c0.746,0.21,1.514,0.378,2.305,0.507
				c0.668,0.108,1.354,0.206,2.059,0.29c0.703,0.085,1.39,0.182,2.06,0.292c0.911,0.15,1.747,0.377,2.509,0.682
				c0.759,0.304,1.396,0.799,1.904,1.479c0.507,0.68,0.84,1.574,0.994,2.673c0.154,1.099,0.076,2.552-0.232,4.351
				c-0.478,2.786-1.313,5.828-2.497,9.121c-1.184,3.293-2.442,6.665-3.77,10.114s-2.593,6.909-3.794,10.376
				c-1.201,3.468-2.07,6.8-2.609,9.991c-0.461,2.729-0.566,4.906-0.322,6.528c0.244,1.623,1.195,2.578,2.855,2.863
				c1.244,0.214,2.599,0.135,4.068-0.238c1.468-0.373,2.985-0.929,4.551-1.672c1.565-0.742,3.156-1.614,4.772-2.616
				c1.614-1.001,3.17-2.057,4.653-3.171c3.47-2.608,7.057-5.628,10.762-9.038C867.66,230.643,867.81,234.668,868.096,242.722z
				 M793.1,223.088c-0.218,1.449-0.325,2.871-0.32,4.263c0.004,1.393,0.193,2.667,0.567,3.82c0.374,1.154,0.957,2.132,1.746,2.934
				c0.789,0.802,1.865,1.309,3.231,1.519c2.194,0.339,4.325-0.277,6.396-1.854c2.07-1.576,3.966-3.565,5.687-5.967
				c1.721-2.403,3.209-4.931,4.459-7.587c1.25-2.656,2.144-4.892,2.681-6.711c3.829-9.883,5.757-14.824,9.638-24.706
				c-2.485-0.394-5.005-0.179-7.556,0.643c-2.551,0.821-5.032,2.089-7.435,3.799c-2.403,1.71-4.681,3.739-6.831,6.083
				c-2.15,2.344-4.073,4.858-5.771,7.537c-1.698,2.68-3.109,5.418-4.233,8.212C794.233,217.867,793.483,220.538,793.1,223.088z"/>
			<path d="M919.351,209.983c1.03-1.664,2.342-3.02,3.933-4.066c1.59-1.046,3.276-1.812,5.053-2.299
				c1.775-0.486,3.543-0.71,5.3-0.671c1.756,0.039,3.351,0.292,4.783,0.759c1.706,0.556,3.017,1.383,3.93,2.478
				c0.912,1.095,1.107,2.412,0.587,3.95c-0.162,0.477-0.441,1.009-0.812,1.589c-0.8,1.252-1.843,3.018-3.139,5.243
				c-1.296,2.224-2.739,4.754-4.325,7.589c-1.586,2.835-3.24,5.839-4.96,9.01c-1.721,3.173-3.396,6.364-5.051,9.504
				c-3.895,7.389-12.436,23.952-12.436,23.952c0.119,0.157,4.003-0.909,6.315-1.612c2.309-0.702,4.986-1.783,8.032-3.237
				c3.046-1.455,6.556-3.384,10.54-5.787c3.983-2.402,8.61-5.514,13.9-9.329c-0.87,7.592-1.308,11.388-2.19,18.981
				c-1.526,1.309-3.344,2.563-5.452,3.759c-2.109,1.198-4.374,2.342-6.795,3.434c-2.422,1.093-4.902,2.107-7.439,3.044
				c-2.537,0.938-5.004,1.798-7.39,2.584c-5.641,1.859-14.888,2.735-17.818,4.991c-2.815,2.168-5.811,10.485-8.902,15.418
				c-3.09,4.932-6.309,9.443-9.65,13.527c-3.341,4.084-6.809,7.7-10.403,10.851c-3.593,3.15-7.315,5.646-11.164,7.489
				c-3.85,1.843-7.851,2.956-12.009,3.343c-4.159,0.386-8.466-0.125-12.94-1.528c-1.768-0.555-3.627-1.339-5.575-2.349
				c-1.949-1.011-3.636-2.344-5.062-3.997c-1.425-1.652-2.418-3.69-2.974-6.115c-0.555-2.423-0.341-5.363,0.652-8.818
				c0.688-2.392,2.069-4.91,4.151-7.546c2.083-2.638,4.666-5.298,7.755-7.978c3.089-2.679,6.626-5.368,10.615-8.06
				c3.988-2.692,8.24-5.287,12.756-7.78c4.516-2.494,9.192-4.875,14.026-7.141c4.836-2.267,9.678-4.349,14.525-6.248
				c1.804-2.686,2.708-4.028,4.519-6.712c-3.711,1.619-7.379,2.716-11.007,3.289c-3.629,0.574-6.916,0.402-9.869-0.518
				c-2.577-0.803-4.929-2.099-7.061-3.889c-2.133-1.789-3.849-3.939-5.151-6.453c-1.302-2.513-2.103-5.336-2.4-8.469
				c-0.298-3.133,0.08-6.453,1.138-9.962c1.395-4.625,2.912-8.809,4.556-12.552c1.643-3.742,3.439-7.238,5.392-10.485
				c1.952-3.247,4.094-6.308,6.428-9.182c2.334-2.874,4.878-5.771,7.641-8.563c1.989-2.01,4.419-3.282,7.199-3.811
				c2.778-0.528,5.308-0.446,7.584,0.248c1.941,0.592,3.457,1.568,4.544,2.923c1.086,1.354,1.313,3.018,0.683,4.983
				c-0.187,0.585-0.462,1.201-0.82,1.848c-0.359,0.648-0.836,1.319-1.417,2.013c-1.776,2.122-3.672,4.718-5.687,7.74
				c-2.016,3.024-3.942,6.162-5.777,9.413c-1.835,3.252-3.493,6.486-4.977,9.697c-1.484,3.212-2.621,6.095-3.416,8.645
				c-0.414,1.329-0.721,2.648-0.919,3.954c-0.198,1.306-0.207,2.529-0.026,3.662c0.181,1.134,0.582,2.134,1.202,2.997
				c0.62,0.864,1.55,1.49,2.793,1.88c1.997,0.626,4.072,0.348,6.23-0.84c2.157-1.187,4.211-2.786,6.164-4.798
				c1.952-2.012,3.705-4.174,5.256-6.49c1.55-2.315,2.71-4.287,3.476-5.917C911.304,222.927,913.974,218.611,919.351,209.983z
				 M844.305,317.934c2.199,0.687,4.475,0.691,6.827,0.009c2.353-0.683,4.676-1.824,6.97-3.423c2.295-1.601,4.537-3.537,6.733-5.81
				c2.193-2.272,4.257-4.661,6.187-7.164c1.93-2.504,3.688-4.991,5.27-7.462c1.581-2.47,4.005-6.689,4.005-6.689
				c-0.125-0.157-5.121,1.688-7.858,2.918c-2.736,1.229-5.461,2.626-8.17,4.187c-2.708,1.561-5.328,3.228-7.855,4.995
				c-2.525,1.766-4.796,3.516-6.807,5.241c-2.012,1.725-3.687,3.397-5.026,5.012c-1.339,1.615-2.188,3.035-2.549,4.257
				C841.451,315.971,842.211,317.28,844.305,317.934z"/>
		</g>
	</g>
	<g>
		<path opacity="0.6" fill="#8E8120" d="M601.133,470.875c0,17.749-52.841,32.137-118.023,32.137s-118.023-14.388-118.023-32.137
			s52.841-24.738,118.023-24.738S601.133,453.126,601.133,470.875z"/>
		<path fill="#EDEADF" d="M483.11,236.533c-68.266,0-123.616,55.341-123.616,123.616s55.35,123.616,123.616,123.616
			c68.266,0,123.616-55.341,123.616-123.616S551.376,236.533,483.11,236.533z"/>
		<path d="M483.11,237.282c-68.266,0-123.616,55.341-123.616,123.616s55.35,123.616,123.616,123.616
			c68.266,0,123.616-55.341,123.616-123.616S551.376,237.282,483.11,237.282z M516.817,254.424l28.585,20.764l28.559,20.763
			l-13.624,33.75l-31.991,9.503l-38.569-28.033l-0.863-33.362L516.817,254.424z M420.845,275.17l28.577-20.746l27.877,23.385
			l-0.845,33.37l-38.578,28.016l-31.991-9.494l-13.624-33.758L420.845,275.17z M393.261,427.233l-10.925-33.603l-10.899-33.595
			l30.862-19.28l31.473,11.114l14.719,45.348l-18.919,27.49L393.261,427.233z M518.429,466.855H483.11h-35.319l-8.821-35.319
			l20.298-26.489h47.684l20.316,26.489L518.429,466.855z M572.96,427.233l-36.311-2.526l-18.919-27.49l14.736-45.348l31.465-11.132
			l30.861,19.315l-10.916,33.594L572.96,427.233z"/>
	</g>
</g>
</svg>
